<svg xmlns="http://www.w3.org/2000/svg" viewBox="0 0 300 450" width="300" height="450" role="img" aria-label="Godel, Escher, Bach by Douglas Hofstadter" font-family="system-ui,-apple-system,'Segoe UI',Roboto,'Helvetica Neue',Arial,sans-serif"><rect width="300" height="450" fill="#241a33"/><rect width="300" height="450" fill="#2b2140"/><rect y="120" width="300" height="1" fill="#5a4a7a" opacity="0.35"/><rect y="146" width="300" height="1" fill="#5a4a7a" opacity="0.35"/><rect y="172" width="300" height="1" fill="#5a4a7a" opacity="0.35"/><rect y="198" width="300" height="1" fill="#5a4a7a" opacity="0.35"/><rect y="224" width="300" height="1" fill="#5a4a7a" opacity="0.35"/><rect y="250" width="300" height="1" fill="#5a4a7a" opacity="0.35"/><rect y="276" width="300" height="1" fill="#5a4a7a" opacity="0.35"/><rect y="302" width="300" height="1" fill="#5a4a7a" opacity="0.35"/><rect y="328" width="300" height="1" fill="#5a4a7a" opacity="0.35"/><rect y="354" width="300" height="1" fill="#5a4a7a" opacity="0.35"/><rect y="380" width="300" height="1" fill="#5a4a7a" opacity="0.35"/><polygon points="150,196 214,300 190,300 150,232 110,300 86,300" fill="#e7c06a"/><polygon points="150,196 174,196 236,304 214,304" fill="#c99a3f"/><polygon points="86,300 214,300 202,318 98,318" fill="#f2d78a"/><polygon points="150,196 174,196 150,238 150,232" fill="#8f6a24" opacity="0.5"/><ellipse cx="118" cy="360" rx="9" ry="6.5" fill="#efe9dc" transform="rotate(-18 118 360)"/><rect x="125" y="322" width="3" height="38" fill="#efe9dc"/><path d="M128,322 q14,4 12,20" fill="none" stroke="#efe9dc" stroke-width="3"/><rect width="300" height="82" fill="#000" opacity="0.50"/><rect y="82" width="300" height="34" fill="#000" opacity="0.26"/><rect y="116" width="300" height="26" fill="#000" opacity="0.12"/><rect y="398" width="300" height="52" fill="#000" opacity="0.42"/><rect x="24" y="86" width="34" height="3" fill="#F4EFE6"/><text x="24" y="44" font-size="26" font-weight="800" fill="#F4EFE6" letter-spacing="0.2">Godel, Escher,</text><text x="24" y="74" font-size="26" font-weight="800" fill="#F4EFE6" letter-spacing="0.2">Bach</text><text x="24" y="429" font-size="13" fill="#F4EFE6" opacity="0.92" letter-spacing="1.3">DOUGLAS HOFSTADTER</text><rect x="5.5" y="5.5" width="289" height="439" fill="none" stroke="#F4EFE6" stroke-width="1" opacity="0.28"/></svg>