<svg xmlns="http://www.w3.org/2000/svg" viewBox="0 0 300 450" width="300" height="450" role="img" aria-label="Perdido Street Station by China Mieville" font-family="system-ui,-apple-system,'Segoe UI',Roboto,'Helvetica Neue',Arial,sans-serif"><rect width="300" height="450" fill="#12100c"/><rect width="300" height="450" fill="#171309"/><rect x="24" y="290" width="26" height="90" fill="#0c0a06"/><rect x="54" y="250" width="18" height="130" fill="#0c0a06"/><rect x="78" y="270" width="30" height="110" fill="#0c0a06"/><rect x="150" y="230" width="22" height="150" fill="#0c0a06"/><rect x="188" y="260" width="30" height="120" fill="#0c0a06"/><rect x="230" y="240" width="20" height="140" fill="#0c0a06"/><rect x="256" y="280" width="26" height="100" fill="#0c0a06"/><rect x="60" y="220" width="8" height="40" fill="#0c0a06"/><ellipse cx="64" cy="216" rx="12" ry="8" fill="#3a3226" opacity="0.6"/><rect x="196" y="220" width="8" height="40" fill="#0c0a06"/><ellipse cx="200" cy="216" rx="12" ry="8" fill="#3a3226" opacity="0.6"/><rect x="238" y="220" width="8" height="40" fill="#0c0a06"/><ellipse cx="242" cy="216" rx="12" ry="8" fill="#3a3226" opacity="0.6"/><rect y="200" width="300" height="60" fill="#2a2418" opacity="0.4"/><ellipse cx="150" cy="210" rx="6" ry="26" fill="#241c12"/><path d="M150,196 q-20,-30 -66,-4 q6,34 60,26 q6,-8 0,-22 Z" fill="#3a2e1a"/><path d="M150,210 q-24,10 -44,34 q10,4 34,-14 Z" fill="#33291a"/><circle cx="116" cy="198" r="7" fill="#c86a2a" opacity="0.85"/><circle cx="116" cy="198" r="3" fill="#f0d24a"/><path d="M150,196 q20,-30 66,-4 q-6,34 -60,26 q-6,-8 0,-22 Z" fill="#3a2e1a"/><path d="M150,210 q24,10 44,34 q-10,4 -34,-14 Z" fill="#33291a"/><circle cx="184" cy="198" r="7" fill="#c86a2a" opacity="0.85"/><circle cx="184" cy="198" r="3" fill="#f0d24a"/><path d="M146,186 q-4,-8 -10,-6 M154,186 q4,-8 10,-6" stroke="#241c12" stroke-width="2" fill="none"/><rect width="300" height="82" fill="#000" opacity="0.50"/><rect y="82" width="300" height="34" fill="#000" opacity="0.26"/><rect y="116" width="300" height="26" fill="#000" opacity="0.12"/><rect y="398" width="300" height="52" fill="#000" opacity="0.42"/><rect x="24" y="86" width="34" height="3" fill="#F4EFE6"/><text x="24" y="44" font-size="26" font-weight="800" fill="#F4EFE6" letter-spacing="0.2">Perdido Street</text><text x="24" y="74" font-size="26" font-weight="800" fill="#F4EFE6" letter-spacing="0.2">Station</text><text x="24" y="429" font-size="13" fill="#F4EFE6" opacity="0.92" letter-spacing="1.3">CHINA MIEVILLE</text><rect x="5.5" y="5.5" width="289" height="439" fill="none" stroke="#F4EFE6" stroke-width="1" opacity="0.28"/></svg>