<svg xmlns="http://www.w3.org/2000/svg" viewBox="0 0 300 450" width="300" height="450" role="img" aria-label="Neuromancer by William Gibson" font-family="system-ui,-apple-system,'Segoe UI',Roboto,'Helvetica Neue',Arial,sans-serif"><rect width="300" height="450" fill="#0a0a12"/><rect width="300" height="215" fill="#161226"/><rect y="20" width="300" height="1" fill="#2a2340" opacity="0.5"/><rect y="32" width="300" height="1" fill="#2a2340" opacity="0.5"/><rect y="44" width="300" height="1" fill="#2a2340" opacity="0.5"/><rect y="56" width="300" height="1" fill="#2a2340" opacity="0.5"/><rect y="68" width="300" height="1" fill="#2a2340" opacity="0.5"/><rect y="80" width="300" height="1" fill="#2a2340" opacity="0.5"/><rect y="92" width="300" height="1" fill="#2a2340" opacity="0.5"/><rect y="104" width="300" height="1" fill="#2a2340" opacity="0.5"/><rect y="116" width="300" height="1" fill="#2a2340" opacity="0.5"/><rect y="128" width="300" height="1" fill="#2a2340" opacity="0.5"/><rect y="140" width="300" height="1" fill="#2a2340" opacity="0.5"/><rect y="152" width="300" height="1" fill="#2a2340" opacity="0.5"/><rect y="164" width="300" height="1" fill="#2a2340" opacity="0.5"/><rect y="176" width="300" height="1" fill="#2a2340" opacity="0.5"/><rect y="188" width="300" height="1" fill="#2a2340" opacity="0.5"/><rect x="18" y="145" width="26" height="70" fill="#05050a"/><rect x="23" y="153" width="3" height="4" fill="#ff2f8e" opacity="0.75"/><rect x="35" y="153" width="3" height="4" fill="#22d3ee" opacity="0.7"/><rect x="23" y="169" width="3" height="4" fill="#ff2f8e" opacity="0.75"/><rect x="35" y="169" width="3" height="4" fill="#22d3ee" opacity="0.7"/><rect x="23" y="185" width="3" height="4" fill="#ff2f8e" opacity="0.75"/><rect x="35" y="185" width="3" height="4" fill="#22d3ee" opacity="0.7"/><rect x="23" y="201" width="3" height="4" fill="#ff2f8e" opacity="0.75"/><rect x="35" y="201" width="3" height="4" fill="#22d3ee" opacity="0.7"/><rect x="50" y="105" width="18" height="110" fill="#05050a"/><rect x="55" y="113" width="3" height="4" fill="#ff2f8e" opacity="0.75"/><rect x="55" y="129" width="3" height="4" fill="#ff2f8e" opacity="0.75"/><rect x="55" y="145" width="3" height="4" fill="#ff2f8e" opacity="0.75"/><rect x="55" y="161" width="3" height="4" fill="#ff2f8e" opacity="0.75"/><rect x="55" y="177" width="3" height="4" fill="#ff2f8e" opacity="0.75"/><rect x="55" y="193" width="3" height="4" fill="#ff2f8e" opacity="0.75"/><rect x="55" y="209" width="3" height="4" fill="#ff2f8e" opacity="0.75"/><rect x="74" y="65" width="30" height="150" fill="#05050a"/><rect x="79" y="73" width="3" height="4" fill="#ff2f8e" opacity="0.75"/><rect x="95" y="73" width="3" height="4" fill="#22d3ee" opacity="0.7"/><rect x="79" y="89" width="3" height="4" fill="#ff2f8e" opacity="0.75"/><rect x="95" y="89" width="3" height="4" fill="#22d3ee" opacity="0.7"/><rect x="79" y="105" width="3" height="4" fill="#ff2f8e" opacity="0.75"/><rect x="95" y="105" width="3" height="4" fill="#22d3ee" opacity="0.7"/><rect x="79" y="121" width="3" height="4" fill="#ff2f8e" opacity="0.75"/><rect x="95" y="121" width="3" height="4" fill="#22d3ee" opacity="0.7"/><rect x="79" y="137" width="3" height="4" fill="#ff2f8e" opacity="0.75"/><rect x="95" y="137" width="3" height="4" fill="#22d3ee" opacity="0.7"/><rect x="79" y="153" width="3" height="4" fill="#ff2f8e" opacity="0.75"/><rect x="95" y="153" width="3" height="4" fill="#22d3ee" opacity="0.7"/><rect x="79" y="169" width="3" height="4" fill="#ff2f8e" opacity="0.75"/><rect x="95" y="169" width="3" height="4" fill="#22d3ee" opacity="0.7"/><rect x="79" y="185" width="3" height="4" fill="#ff2f8e" opacity="0.75"/><rect x="95" y="185" width="3" height="4" fill="#22d3ee" opacity="0.7"/><rect x="79" y="201" width="3" height="4" fill="#ff2f8e" opacity="0.75"/><rect x="95" y="201" width="3" height="4" fill="#22d3ee" opacity="0.7"/><rect x="110" y="119" width="20" height="96" fill="#05050a"/><rect x="115" y="127" width="3" height="4" fill="#ff2f8e" opacity="0.75"/><rect x="115" y="143" width="3" height="4" fill="#ff2f8e" opacity="0.75"/><rect x="115" y="159" width="3" height="4" fill="#ff2f8e" opacity="0.75"/><rect x="115" y="175" width="3" height="4" fill="#ff2f8e" opacity="0.75"/><rect x="115" y="191" width="3" height="4" fill="#ff2f8e" opacity="0.75"/><rect x="115" y="207" width="3" height="4" fill="#ff2f8e" opacity="0.75"/><rect x="136" y="47" width="34" height="168" fill="#05050a"/><rect x="141" y="55" width="3" height="4" fill="#ff2f8e" opacity="0.75"/><rect x="161" y="55" width="3" height="4" fill="#22d3ee" opacity="0.7"/><rect x="141" y="71" width="3" height="4" fill="#ff2f8e" opacity="0.75"/><rect x="161" y="71" width="3" height="4" fill="#22d3ee" opacity="0.7"/><rect x="141" y="87" width="3" height="4" fill="#ff2f8e" opacity="0.75"/><rect x="161" y="87" width="3" height="4" fill="#22d3ee" opacity="0.7"/><rect x="141" y="103" width="3" height="4" fill="#ff2f8e" opacity="0.75"/><rect x="161" y="103" width="3" height="4" fill="#22d3ee" opacity="0.7"/><rect x="141" y="119" width="3" height="4" fill="#ff2f8e" opacity="0.75"/><rect x="161" y="119" width="3" height="4" fill="#22d3ee" opacity="0.7"/><rect x="141" y="135" width="3" height="4" fill="#ff2f8e" opacity="0.75"/><rect x="161" y="135" width="3" height="4" fill="#22d3ee" opacity="0.7"/><rect x="141" y="151" width="3" height="4" fill="#ff2f8e" opacity="0.75"/><rect x="161" y="151" width="3" height="4" fill="#22d3ee" opacity="0.7"/><rect x="141" y="167" width="3" height="4" fill="#ff2f8e" opacity="0.75"/><rect x="161" y="167" width="3" height="4" fill="#22d3ee" opacity="0.7"/><rect x="141" y="183" width="3" height="4" fill="#ff2f8e" opacity="0.75"/><rect x="161" y="183" width="3" height="4" fill="#22d3ee" opacity="0.7"/><rect x="141" y="199" width="3" height="4" fill="#ff2f8e" opacity="0.75"/><rect x="161" y="199" width="3" height="4" fill="#22d3ee" opacity="0.7"/><rect x="176" y="95" width="22" height="120" fill="#05050a"/><rect x="181" y="103" width="3" height="4" fill="#ff2f8e" opacity="0.75"/><rect x="189" y="103" width="3" height="4" fill="#22d3ee" opacity="0.7"/><rect x="181" y="119" width="3" height="4" fill="#ff2f8e" opacity="0.75"/><rect x="189" y="119" width="3" height="4" fill="#22d3ee" opacity="0.7"/><rect x="181" y="135" width="3" height="4" fill="#ff2f8e" opacity="0.75"/><rect x="189" y="135" width="3" height="4" fill="#22d3ee" opacity="0.7"/><rect x="181" y="151" width="3" height="4" fill="#ff2f8e" opacity="0.75"/><rect x="189" y="151" width="3" height="4" fill="#22d3ee" opacity="0.7"/><rect x="181" y="167" width="3" height="4" fill="#ff2f8e" opacity="0.75"/><rect x="189" y="167" width="3" height="4" fill="#22d3ee" opacity="0.7"/><rect x="181" y="183" width="3" height="4" fill="#ff2f8e" opacity="0.75"/><rect x="189" y="183" width="3" height="4" fill="#22d3ee" opacity="0.7"/><rect x="181" y="199" width="3" height="4" fill="#ff2f8e" opacity="0.75"/><rect x="189" y="199" width="3" height="4" fill="#22d3ee" opacity="0.7"/><rect x="204" y="75" width="30" height="140" fill="#05050a"/><rect x="209" y="83" width="3" height="4" fill="#ff2f8e" opacity="0.75"/><rect x="225" y="83" width="3" height="4" fill="#22d3ee" opacity="0.7"/><rect x="209" y="99" width="3" height="4" fill="#ff2f8e" opacity="0.75"/><rect x="225" y="99" width="3" height="4" fill="#22d3ee" opacity="0.7"/><rect x="209" y="115" width="3" height="4" fill="#ff2f8e" opacity="0.75"/><rect x="225" y="115" width="3" height="4" fill="#22d3ee" opacity="0.7"/><rect x="209" y="131" width="3" height="4" fill="#ff2f8e" opacity="0.75"/><rect x="225" y="131" width="3" height="4" fill="#22d3ee" opacity="0.7"/><rect x="209" y="147" width="3" height="4" fill="#ff2f8e" opacity="0.75"/><rect x="225" y="147" width="3" height="4" fill="#22d3ee" opacity="0.7"/><rect x="209" y="163" width="3" height="4" fill="#ff2f8e" opacity="0.75"/><rect x="225" y="163" width="3" height="4" fill="#22d3ee" opacity="0.7"/><rect x="209" y="179" width="3" height="4" fill="#ff2f8e" opacity="0.75"/><rect x="225" y="179" width="3" height="4" fill="#22d3ee" opacity="0.7"/><rect x="209" y="195" width="3" height="4" fill="#ff2f8e" opacity="0.75"/><rect x="225" y="195" width="3" height="4" fill="#22d3ee" opacity="0.7"/><rect x="240" y="125" width="18" height="90" fill="#05050a"/><rect x="245" y="133" width="3" height="4" fill="#ff2f8e" opacity="0.75"/><rect x="245" y="149" width="3" height="4" fill="#ff2f8e" opacity="0.75"/><rect x="245" y="165" width="3" height="4" fill="#ff2f8e" opacity="0.75"/><rect x="245" y="181" width="3" height="4" fill="#ff2f8e" opacity="0.75"/><rect x="245" y="197" width="3" height="4" fill="#ff2f8e" opacity="0.75"/><rect x="262" y="65" width="26" height="150" fill="#05050a"/><rect x="267" y="73" width="3" height="4" fill="#ff2f8e" opacity="0.75"/><rect x="279" y="73" width="3" height="4" fill="#22d3ee" opacity="0.7"/><rect x="267" y="89" width="3" height="4" fill="#ff2f8e" opacity="0.75"/><rect x="279" y="89" width="3" height="4" fill="#22d3ee" opacity="0.7"/><rect x="267" y="105" width="3" height="4" fill="#ff2f8e" opacity="0.75"/><rect x="279" y="105" width="3" height="4" fill="#22d3ee" opacity="0.7"/><rect x="267" y="121" width="3" height="4" fill="#ff2f8e" opacity="0.75"/><rect x="279" y="121" width="3" height="4" fill="#22d3ee" opacity="0.7"/><rect x="267" y="137" width="3" height="4" fill="#ff2f8e" opacity="0.75"/><rect x="279" y="137" width="3" height="4" fill="#22d3ee" opacity="0.7"/><rect x="267" y="153" width="3" height="4" fill="#ff2f8e" opacity="0.75"/><rect x="279" y="153" width="3" height="4" fill="#22d3ee" opacity="0.7"/><rect x="267" y="169" width="3" height="4" fill="#ff2f8e" opacity="0.75"/><rect x="279" y="169" width="3" height="4" fill="#22d3ee" opacity="0.7"/><rect x="267" y="185" width="3" height="4" fill="#ff2f8e" opacity="0.75"/><rect x="279" y="185" width="3" height="4" fill="#22d3ee" opacity="0.7"/><rect x="267" y="201" width="3" height="4" fill="#ff2f8e" opacity="0.75"/><rect x="279" y="201" width="3" height="4" fill="#22d3ee" opacity="0.7"/><rect y="206" width="300" height="10" fill="#ff2f8e" opacity="0.35"/><rect y="215" width="300" height="235" fill="#06060d"/><line x1="-174" y1="450" x2="150" y2="215" stroke="#22d3ee" stroke-width="1.4" opacity="0.6"/><line x1="-120" y1="450" x2="150" y2="215" stroke="#22d3ee" stroke-width="1.4" opacity="0.6"/><line x1="-66" y1="450" x2="150" y2="215" stroke="#22d3ee" stroke-width="1.4" opacity="0.6"/><line x1="-12" y1="450" x2="150" y2="215" stroke="#22d3ee" stroke-width="1.4" opacity="0.6"/><line x1="42" y1="450" x2="150" y2="215" stroke="#22d3ee" stroke-width="1.4" opacity="0.6"/><line x1="96" y1="450" x2="150" y2="215" stroke="#22d3ee" stroke-width="1.4" opacity="0.6"/><line x1="150" y1="450" x2="150" y2="215" stroke="#22d3ee" stroke-width="1.4" opacity="0.6"/><line x1="204" y1="450" x2="150" y2="215" stroke="#22d3ee" stroke-width="1.4" opacity="0.6"/><line x1="258" y1="450" x2="150" y2="215" stroke="#22d3ee" stroke-width="1.4" opacity="0.6"/><line x1="312" y1="450" x2="150" y2="215" stroke="#22d3ee" stroke-width="1.4" opacity="0.6"/><line x1="366" y1="450" x2="150" y2="215" stroke="#22d3ee" stroke-width="1.4" opacity="0.6"/><line x1="420" y1="450" x2="150" y2="215" stroke="#22d3ee" stroke-width="1.4" opacity="0.6"/><line x1="474" y1="450" x2="150" y2="215" stroke="#22d3ee" stroke-width="1.4" opacity="0.6"/><line x1="0" y1="217.901" x2="300" y2="217.901" stroke="#ff2f8e" stroke-width="1.2" opacity="0.31"/><line x1="0" y1="226.605" x2="300" y2="226.605" stroke="#ff2f8e" stroke-width="1.2" opacity="0.36"/><line x1="0" y1="241.111" x2="300" y2="241.111" stroke="#ff2f8e" stroke-width="1.2" opacity="0.42"/><line x1="0" y1="261.42" x2="300" y2="261.42" stroke="#ff2f8e" stroke-width="1.2" opacity="0.47"/><line x1="0" y1="287.531" x2="300" y2="287.531" stroke="#ff2f8e" stroke-width="1.2" opacity="0.53"/><line x1="0" y1="319.444" x2="300" y2="319.444" stroke="#ff2f8e" stroke-width="1.2" opacity="0.58"/><line x1="0" y1="357.16" x2="300" y2="357.16" stroke="#ff2f8e" stroke-width="1.2" opacity="0.64"/><line x1="0" y1="400.679" x2="300" y2="400.679" stroke="#ff2f8e" stroke-width="1.2" opacity="0.69"/><circle cx="150" cy="215" r="3" fill="#eafcff"/><rect width="300" height="52" fill="#000" opacity="0.50"/><rect y="52" width="300" height="34" fill="#000" opacity="0.26"/><rect y="86" width="300" height="26" fill="#000" opacity="0.12"/><rect y="398" width="300" height="52" fill="#000" opacity="0.42"/><rect x="24" y="56" width="34" height="3" fill="#F4EFE6"/><text x="24" y="44" font-size="31" font-weight="800" fill="#F4EFE6" letter-spacing="0.2">Neuromancer</text><text x="24" y="429" font-size="13" fill="#F4EFE6" opacity="0.92" letter-spacing="1.3">WILLIAM GIBSON</text><rect x="5.5" y="5.5" width="289" height="439" fill="none" stroke="#F4EFE6" stroke-width="1" opacity="0.28"/></svg>