<svg xmlns="http://www.w3.org/2000/svg" viewBox="0 0 300 450" width="300" height="450" role="img" aria-label="The Forever War by Joe Haldeman" font-family="system-ui,-apple-system,'Segoe UI',Roboto,'Helvetica Neue',Arial,sans-serif"><rect width="300" height="450" fill="#060a14"/><circle cx="40" cy="60" r="1" fill="#eef1ff" opacity="0.7"/><circle cx="250" cy="50" r="1" fill="#eef1ff" opacity="0.7"/><circle cx="70" cy="380" r="1" fill="#eef1ff" opacity="0.6"/><circle cx="260" cy="400" r="1" fill="#eef1ff" opacity="0.6"/><circle cx="150" cy="170" r="66" fill="#0a1830"/><circle cx="150" cy="170" r="66" fill="none" stroke="#3f7fd6" stroke-width="2" opacity="0.8"/><circle cx="150" cy="170" r="54" fill="none" stroke="#3f7fd6" stroke-width="2" opacity="0.6"/><circle cx="150" cy="170" r="42" fill="none" stroke="#3f7fd6" stroke-width="2" opacity="0.45"/><circle cx="150" cy="170" r="30" fill="#0b1220"/><circle cx="150" cy="170" r="8" fill="#bfe0ff" opacity="0.8"/><path d="M0,330 Q150,314 300,330 L300,450 0,450 Z" fill="#0c1220"/><rect x="142" y="286" width="16" height="44" rx="4" fill="#20304a"/><circle cx="150" cy="278" r="9" fill="#20304a"/><rect x="147" y="274" width="10" height="4" fill="#3f7fd6" opacity="0.8"/><line x1="158" y1="292" x2="182" y2="286" stroke="#20304a" stroke-width="4"/><rect x="140" y="330" width="6" height="18" fill="#20304a"/><rect x="154" y="330" width="6" height="18" fill="#20304a"/><rect width="300" height="52" fill="#000" opacity="0.50"/><rect y="52" width="300" height="34" fill="#000" opacity="0.26"/><rect y="86" width="300" height="26" fill="#000" opacity="0.12"/><rect y="398" width="300" height="52" fill="#000" opacity="0.42"/><rect x="24" y="56" width="34" height="3" fill="#F4EFE6"/><text x="24" y="44" font-size="26" font-weight="800" fill="#F4EFE6" letter-spacing="0.2">The Forever War</text><text x="24" y="429" font-size="13" fill="#F4EFE6" opacity="0.92" letter-spacing="1.3">JOE HALDEMAN</text><rect x="5.5" y="5.5" width="289" height="439" fill="none" stroke="#F4EFE6" stroke-width="1" opacity="0.28"/></svg>