<svg xmlns="http://www.w3.org/2000/svg" viewBox="0 0 300 450" width="300" height="450" role="img" aria-label="Childhood&#x27;s End by Arthur C. Clarke" font-family="system-ui,-apple-system,'Segoe UI',Roboto,'Helvetica Neue',Arial,sans-serif"><rect width="300" height="450" fill="#1a1426"/><rect width="300" height="450" fill="#221a33"/><circle cx="150" cy="90" r="120" fill="#3a2c52" opacity="0.4"/><rect x="20" y="290" width="24" height="90" fill="#0f0b18"/><rect x="48" y="250" width="16" height="130" fill="#0f0b18"/><rect x="70" y="210" width="28" height="170" fill="#0f0b18"/><rect x="104" y="270" width="18" height="110" fill="#0f0b18"/><rect x="128" y="230" width="30" height="150" fill="#0f0b18"/><rect x="166" y="252" width="20" height="128" fill="#0f0b18"/><rect x="192" y="220" width="28" height="160" fill="#0f0b18"/><rect x="226" y="280" width="18" height="100" fill="#0f0b18"/><rect x="250" y="240" width="26" height="140" fill="#0f0b18"/><ellipse cx="150" cy="150" rx="118" ry="26" fill="#0a0712"/><ellipse cx="150" cy="146" rx="118" ry="24" fill="#2c2340"/><ellipse cx="150" cy="140" rx="70" ry="14" fill="#3f3357"/><circle cx="96" cy="150" r="3" fill="#c9b7f0" opacity="0.8"/><circle cx="150" cy="150" r="3" fill="#c9b7f0" opacity="0.8"/><circle cx="204" cy="150" r="3" fill="#c9b7f0" opacity="0.8"/><ellipse cx="150" cy="150" rx="118" ry="26" fill="#8f7fc0" opacity="0.10"/><polygon points="140,158 160,158 176,330 124,330" fill="#c9b7f0" opacity="0.10"/><rect width="300" height="52" fill="#000" opacity="0.50"/><rect y="52" width="300" height="34" fill="#000" opacity="0.26"/><rect y="86" width="300" height="26" fill="#000" opacity="0.12"/><rect y="398" width="300" height="52" fill="#000" opacity="0.42"/><rect x="24" y="56" width="34" height="3" fill="#F4EFE6"/><text x="24" y="44" font-size="26" font-weight="800" fill="#F4EFE6" letter-spacing="0.2">Childhood&#x27;s End</text><text x="24" y="429" font-size="13" fill="#F4EFE6" opacity="0.92" letter-spacing="1.3">ARTHUR C. CLARKE</text><rect x="5.5" y="5.5" width="289" height="439" fill="none" stroke="#F4EFE6" stroke-width="1" opacity="0.28"/></svg>